<svg xmlns="http://www.w3.org/2000/svg" width="1160" height="460" viewBox="0 0 1160 460" role="img" aria-labelledby="title desc">
  <title id="title">Operational Evidence Plane evidence chain</title>
  <desc id="desc">A seven-step evidence chain from release manifest through runtime event, permission packet, trace bundle, replay state, eval result, and reconstruction packet, with a counterfactual replay branch from stored decisions and replay state.</desc>
  <defs>
    <marker id="arrow" viewBox="0 0 10 10" refX="8" refY="5" markerWidth="8" markerHeight="8" orient="auto-start-reverse">
      <path d="M 0 0 L 10 5 L 0 10 z" fill="#2f4858"/>
    </marker>
    <style>
      .bg { fill: #f8fafc; }
      .title { fill: #102a43; font: 700 26px system-ui, -apple-system, BlinkMacSystemFont, "Segoe UI", sans-serif; }
      .subtitle { fill: #486581; font: 15px system-ui, -apple-system, BlinkMacSystemFont, "Segoe UI", sans-serif; }
      .box { fill: #ffffff; stroke: #9fb3c8; stroke-width: 1.5; rx: 10; }
      .box-release { fill: #eef8f1; stroke: #57a773; }
      .box-runtime { fill: #eef5ff; stroke: #4d8fd6; }
      .box-policy { fill: #fff6e6; stroke: #d69e2e; }
      .box-replay { fill: #f5f0ff; stroke: #7c5cc4; }
      .box-counterfactual { fill: #eefbf6; stroke: #2f9e7e; }
      .box-output { fill: #fef2f2; stroke: #d65f5f; }
      .label { fill: #102a43; font: 700 16px system-ui, -apple-system, BlinkMacSystemFont, "Segoe UI", sans-serif; text-anchor: middle; }
      .small { fill: #486581; font: 12.5px system-ui, -apple-system, BlinkMacSystemFont, "Segoe UI", sans-serif; text-anchor: middle; }
      .arrow { stroke: #2f4858; stroke-width: 2; marker-end: url(#arrow); fill: none; }
      .note { fill: #334e68; font: 13px system-ui, -apple-system, BlinkMacSystemFont, "Segoe UI", sans-serif; }
      .band { fill: #e6f6ff; stroke: #b6e0fe; stroke-width: 1; rx: 8; }
    </style>
  </defs>

  <rect class="bg" x="0" y="0" width="1160" height="460"/>
  <text class="title" x="40" y="48">Operational Evidence Plane</text>
  <text class="subtitle" x="40" y="76">One inspectable chain from release-time intent to reconstruction output.</text>

  <rect class="box box-release" x="40" y="126" width="130" height="96"/>
  <text class="label" x="105" y="160">Release</text>
  <text class="label" x="105" y="182">manifest</text>
  <text class="small" x="105" y="204">model, prompt,</text>
  <text class="small" x="105" y="220">policy, rollout</text>

  <path class="arrow" d="M 176 174 H 216"/>

  <rect class="box box-runtime" x="222" y="126" width="130" height="96"/>
  <text class="label" x="287" y="160">Agent-step</text>
  <text class="label" x="287" y="182">event</text>
  <text class="small" x="287" y="204">release, trace,</text>
  <text class="small" x="287" y="220">tool call keys</text>

  <path class="arrow" d="M 358 174 H 398"/>

  <rect class="box box-policy" x="404" y="126" width="130" height="96"/>
  <text class="label" x="469" y="160">Permission</text>
  <text class="label" x="469" y="182">packet</text>
  <text class="small" x="469" y="204">real OPA</text>
  <text class="small" x="469" y="220">decision</text>

  <path class="arrow" d="M 540 174 H 580"/>

  <rect class="box box-runtime" x="586" y="126" width="130" height="96"/>
  <text class="label" x="651" y="160">Trace</text>
  <text class="label" x="651" y="182">bundle</text>
  <text class="small" x="651" y="204">joins manifest,</text>
  <text class="small" x="651" y="220">event, policy</text>

  <path class="arrow" d="M 722 174 H 762"/>

  <rect class="box box-replay" x="768" y="126" width="130" height="96"/>
  <text class="label" x="833" y="160">SQLite</text>
  <text class="label" x="833" y="182">replay state</text>
  <text class="small" x="833" y="204">generated by</text>
  <text class="small" x="833" y="220">make verify</text>

  <path class="arrow" d="M 904 174 H 944"/>

  <rect class="box box-output" x="950" y="126" width="130" height="96"/>
  <text class="label" x="1015" y="160">Eval</text>
  <text class="label" x="1015" y="182">result</text>
  <text class="small" x="1015" y="204">deterministic</text>
  <text class="small" x="1015" y="220">smoke check</text>

  <path class="arrow" d="M 1015 228 V 266 H 105"/>
  <path class="arrow" d="M 105 266 V 286"/>

  <rect class="box box-output" x="40" y="292" width="210" height="56"/>
  <text class="label" x="145" y="318">Reconstruction packet</text>
  <text class="small" x="145" y="338">what is sufficient, missing, or stale</text>

  <path class="arrow" d="M 469 228 V 264"/>
  <path class="arrow" d="M 833 228 V 250 H 646 V 264"/>

  <rect class="box box-counterfactual" x="360" y="270" width="420" height="74"/>
  <text class="label" x="570" y="296">Counterfactual replay</text>
  <text class="small" x="570" y="318">substitute policy bundle</text>
  <text class="small" x="570" y="336">original vs counterfactual diff</text>

  <rect class="band" x="300" y="372" width="810" height="62"/>
  <text class="note" x="322" y="398">Boundary: reference implementation only. Not a production-grade replay engine, not a framework,</text>
  <text class="note" x="322" y="420">not a compliance certification, and not a model-quality benchmark.</text>
</svg>
